<svg width="27" height="26" viewBox="0 0 27 26" fill="none" xmlns="http://www.w3.org/2000/svg">
<path d="M23.2419 20.7231L24.5204 23.6734C24.7567 24.2172 25.4073 24.4744 25.9749 24.2484C26.5435 24.0248 26.8131 23.4021 26.5775 22.858L25.2993 19.9087L23.2419 20.7231Z" fill="#333333"/>
<path d="M24.095 22.6897L26.152 21.8752L24.095 22.6897Z" fill="#333333"/>
<path d="M20.5444 14.4961L23.4537 15.6479L20.5444 14.4961Z" fill="#333333"/>
<path d="M22.1274 8.51572C22.1274 10.0835 20.7986 11.3542 19.1602 11.3542C17.5201 11.3542 16.1909 10.0835 16.1909 8.51572C16.1909 6.94823 17.5201 5.67822 19.1602 5.67822C20.7983 5.67822 22.1274 6.94823 22.1274 8.51572Z" fill="#333333"/>
<path d="M20.643 8.51563C20.643 9.3 19.9791 9.93548 19.1598 9.93548C18.3396 9.93548 17.6741 9.3 17.6741 8.51563C17.6741 7.73192 18.3396 7.09644 19.1598 7.09644C19.9791 7.09608 20.643 7.73192 20.643 8.51563Z" fill="#333333"/>
<path d="M17.0779 10.5388L13.0172 19.9091L11.9993 24.1141L12.6848 24.3857L15.0748 20.7235L15.6434 19.413C15.1998 18.3883 15.7081 17.2135 16.7796 16.7899L19.1342 11.3532C18.3334 11.3468 17.6088 11.0376 17.0779 10.5388Z" fill="#333333"/>
<path d="M21.2402 10.5381C20.709 11.0375 19.9837 11.3468 19.1829 11.3528L22.6757 19.4113L24.7321 18.5972L21.2402 10.5381Z" fill="#333333"/>
<path d="M20.2724 4.25873V1.06531C20.272 0.476792 19.7721 0.000732422 19.1592 0.000732422C18.5443 0.000732422 18.046 0.476149 18.0457 1.06531L18.046 4.25873H20.2724Z" fill="#333333"/>
<path d="M19.16 5.67801C19.3497 5.67801 19.5357 5.69623 19.7156 5.72883V4.25879H18.6028V5.72883C18.7835 5.6959 18.9684 5.67801 19.16 5.67801Z" fill="#333333"/>
<path d="M3.70278 25.5598H0V0H3.70346C4.52167 0 5.18456 0.636129 5.18456 1.42051V24.1405H5.18425C5.18388 24.925 4.52099 25.5598 3.70278 25.5598Z" fill="#333333"/>
<path d="M3.51821 2.1304C3.82505 2.1304 4.07383 1.89195 4.07383 1.59779C4.07383 1.30364 3.82505 1.06519 3.51821 1.06519C3.21137 1.06519 2.96265 1.30364 2.96265 1.59779C2.96265 1.89195 3.21137 2.1304 3.51821 2.1304Z" fill="#333333"/>
<path d="M7.77661 15.0886C7.77661 15.3816 8.02559 15.6209 8.33217 15.6209C8.63913 15.6209 8.8878 15.3816 8.8878 15.0886C8.8878 15.3816 9.13708 15.6209 9.44336 15.6209C9.75032 15.6209 9.99892 15.3816 9.99892 15.0886C9.99892 15.3816 9.75032 15.6209 9.44336 15.6209C9.13708 15.6209 8.8878 15.3816 8.8878 15.0886C8.8878 15.3816 8.63913 15.6209 8.33217 15.6209C8.02559 15.6209 7.77661 15.3816 7.77661 15.0886Z" fill="#333333"/>
<path d="M8.51751 0C8.10887 0 7.77661 0.318543 7.77661 0.71089V0.710568V15.6207L8.88743 19.8806L9.99862 15.6207V0.710253V0.710568C9.99862 0.318862 9.66667 0.000319356 9.25772 0.000319356L8.51751 0Z" fill="#333333"/>
</svg>
